<svg width="46" height="11" viewBox="0 0 46 11" fill="none" xmlns="http://www.w3.org/2000/svg">
<path d="M2.25 5.27273C2.25 4.76799 2.37311 4.30788 2.61932 3.8924C2.86553 3.47692 3.19638 3.14607 3.61186 2.89986C4.02734 2.65365 4.48745 2.53054 4.99219 2.53054C5.42921 2.53054 5.83239 2.62441 6.20171 2.81214C6.5741 2.99988 6.88187 3.25687 7.125 3.5831C7.36813 3.90625 7.51894 4.27249 7.57742 4.68182H6.46023C6.39867 4.36482 6.22786 4.1063 5.9478 3.90625C5.66773 3.70312 5.3492 3.60156 4.99219 3.60156C4.68442 3.60156 4.40436 3.67696 4.15199 3.82777C3.89962 3.97857 3.69804 4.18016 3.54723 4.43253C3.39643 4.6849 3.32102 4.96496 3.32102 5.27273C3.32102 5.58049 3.39643 5.86056 3.54723 6.11293C3.69804 6.36529 3.89962 6.56688 4.15199 6.71768C4.40436 6.86849 4.68442 6.94389 4.99219 6.94389C5.3492 6.94389 5.65081 6.84387 5.89702 6.64382C6.14631 6.4407 6.30327 6.18063 6.3679 5.86364H7.48509C7.42661 6.27296 7.2835 6.64074 7.05575 6.96697C6.82801 7.29013 6.53563 7.54557 6.17862 7.73331C5.82469 7.92105 5.42921 8.01491 4.99219 8.01491C4.48745 8.01491 4.02734 7.89181 3.61186 7.6456C3.19638 7.39938 2.86553 7.06854 2.61932 6.65305C2.37311 6.23757 2.25 5.77746 2.25 5.27273ZM4.94602 10.1477C4.27509 10.1477 3.64418 10.0215 3.05327 9.76918C2.46544 9.51681 1.94685 9.1675 1.49751 8.72124C1.05125 8.2719 0.700402 7.75331 0.444957 7.16548C0.19259 6.57765 0.0679451 5.94673 0.0710228 5.27273C0.0741004 4.59872 0.201823 3.9678 0.45419 3.37997C0.709635 2.79214 1.06049 2.27509 1.50675 1.82884C1.95301 1.3795 2.47005 1.02865 3.05788 0.776278C3.64572 0.523911 4.27509 0.397727 4.94602 0.397727C5.62003 0.397727 6.25095 0.523911 6.83878 0.776278C7.42969 1.02865 7.94673 1.3795 8.38992 1.82884C8.83617 2.27509 9.18549 2.79214 9.43786 3.37997C9.69022 3.9678 9.81795 4.59872 9.82102 5.27273C9.8241 5.94673 9.69946 6.57765 9.44709 7.16548C9.19472 7.75331 8.84541 8.2719 8.39915 8.72124C7.95289 9.1675 7.4343 9.51681 6.84339 9.76918C6.25249 10.0215 5.62003 10.1477 4.94602 10.1477ZM4.94602 9.0767C5.4723 9.0767 5.96626 8.97822 6.42791 8.78125C6.88956 8.58428 7.29427 8.31191 7.64205 7.96413C7.98982 7.61636 8.26219 7.21319 8.45916 6.75462C8.65613 6.29297 8.75308 5.80054 8.75 5.27734C8.74692 4.75107 8.6469 4.2571 8.44993 3.79545C8.25296 3.33381 7.98059 2.9291 7.63281 2.58132C7.28504 2.23355 6.88187 1.96117 6.4233 1.7642C5.96473 1.56723 5.4723 1.46875 4.94602 1.46875C4.42282 1.46875 3.93194 1.56723 3.47337 1.7642C3.0148 1.96117 2.61162 2.23508 2.26385 2.58594C1.91607 2.93371 1.64216 3.33842 1.44212 3.80007C1.24515 4.25864 1.14512 4.75107 1.14205 5.27734C1.13897 5.79747 1.23591 6.28835 1.43288 6.75C1.62985 7.20857 1.90223 7.61174 2.25 7.95952C2.60085 8.30729 3.00556 8.5812 3.46413 8.78125C3.92578 8.97822 4.41974 9.0767 4.94602 9.0767ZM15.5305 10V9.16903L18.6512 5.75284C19.0174 5.35275 19.319 5.00497 19.556 4.70952C19.793 4.41098 19.9684 4.13092 20.0823 3.86932C20.1992 3.60464 20.2577 3.32765 20.2577 3.03835C20.2577 2.70597 20.1777 2.41821 20.0177 2.17507C19.8607 1.93194 19.6453 1.7442 19.3714 1.61186C19.0974 1.47952 18.7897 1.41335 18.4481 1.41335C18.0849 1.41335 17.7679 1.48875 17.4971 1.63956C17.2293 1.78729 17.0216 1.99503 16.8738 2.26278C16.7292 2.53054 16.6569 2.84446 16.6569 3.20454H15.5674C15.5674 2.65057 15.6951 2.1643 15.9506 1.74574C16.206 1.32718 16.5538 1.00095 16.9939 0.767045C17.4371 0.533144 17.9341 0.416193 18.485 0.416193C19.039 0.416193 19.5299 0.533144 19.9577 0.767045C20.3854 1.00095 20.7209 1.31641 20.964 1.71342C21.2072 2.11044 21.3287 2.55208 21.3287 3.03835C21.3287 3.38613 21.2657 3.72621 21.1395 4.05859C21.0164 4.3879 20.8009 4.75568 20.4932 5.16193C20.1885 5.5651 19.7653 6.05753 19.2236 6.6392L17.1001 8.91051V8.98438H21.4949V10H15.5305ZM26.4854 10.1293C25.7898 10.1293 25.1974 9.93999 24.708 9.56143C24.2187 9.17981 23.8447 8.62737 23.5862 7.90412C23.3277 7.17779 23.1984 6.30066 23.1984 5.27273C23.1984 4.25095 23.3277 3.37843 23.5862 2.65518C23.8478 1.92886 24.2233 1.37488 24.7126 0.993252C25.205 0.608546 25.796 0.416193 26.4854 0.416193C27.1747 0.416193 27.7641 0.608546 28.2535 0.993252C28.7459 1.37488 29.1214 1.92886 29.3799 2.65518C29.6415 3.37843 29.7723 4.25095 29.7723 5.27273C29.7723 6.30066 29.643 7.17779 29.3845 7.90412C29.126 8.62737 28.752 9.17981 28.2627 9.56143C27.7733 9.93999 27.1809 10.1293 26.4854 10.1293ZM26.4854 9.11364C27.1747 9.11364 27.7103 8.78125 28.0919 8.11648C28.4735 7.4517 28.6643 6.50379 28.6643 5.27273C28.6643 4.45407 28.5766 3.75698 28.4012 3.18146C28.2288 2.60594 27.9796 2.16738 27.6533 1.86577C27.3302 1.56416 26.9408 1.41335 26.4854 1.41335C25.8021 1.41335 25.2681 1.75035 24.8834 2.42436C24.4987 3.09529 24.3064 4.04474 24.3064 5.27273C24.3064 6.09138 24.3925 6.78693 24.5649 7.35938C24.7372 7.93182 24.985 8.36731 25.3081 8.66584C25.6344 8.96437 26.0268 9.11364 26.4854 9.11364ZM31.5265 10V9.16903L34.6473 5.75284C35.0135 5.35275 35.3151 5.00497 35.5521 4.70952C35.7891 4.41098 35.9645 4.13092 36.0784 3.86932C36.1953 3.60464 36.2538 3.32765 36.2538 3.03835C36.2538 2.70597 36.1738 2.41821 36.0138 2.17507C35.8568 1.93194 35.6414 1.7442 35.3675 1.61186C35.0935 1.47952 34.7858 1.41335 34.4442 1.41335C34.081 1.41335 33.764 1.48875 33.4932 1.63956C33.2254 1.78729 33.0177 1.99503 32.8699 2.26278C32.7253 2.53054 32.653 2.84446 32.653 3.20454H31.5635C31.5635 2.65057 31.6912 2.1643 31.9466 1.74574C32.2021 1.32718 32.5499 1.00095 32.99 0.767045C33.4331 0.533144 33.9302 0.416193 34.4811 0.416193C35.0351 0.416193 35.526 0.533144 35.9537 0.767045C36.3815 1.00095 36.717 1.31641 36.9601 1.71342C37.2033 2.11044 37.3248 2.55208 37.3248 3.03835C37.3248 3.38613 37.2617 3.72621 37.1356 4.05859C37.0125 4.3879 36.797 4.75568 36.4893 5.16193C36.1846 5.5651 35.7614 6.05753 35.2197 6.6392L33.0961 8.91051V8.98438H37.491V10H31.5265ZM42.4814 10.1293C41.7859 10.1293 41.1934 9.93999 40.7041 9.56143C40.2148 9.17981 39.8408 8.62737 39.5823 7.90412C39.3238 7.17779 39.1945 6.30066 39.1945 5.27273C39.1945 4.25095 39.3238 3.37843 39.5823 2.65518C39.8439 1.92886 40.2194 1.37488 40.7087 0.993252C41.2011 0.608546 41.7921 0.416193 42.4814 0.416193C43.1708 0.416193 43.7602 0.608546 44.2496 0.993252C44.742 1.37488 45.1175 1.92886 45.376 2.65518C45.6376 3.37843 45.7684 4.25095 45.7684 5.27273C45.7684 6.30066 45.6391 7.17779 45.3806 7.90412C45.1221 8.62737 44.7481 9.17981 44.2588 9.56143C43.7694 9.93999 43.177 10.1293 42.4814 10.1293ZM42.4814 9.11364C43.1708 9.11364 43.7064 8.78125 44.088 8.11648C44.4696 7.4517 44.6604 6.50379 44.6604 5.27273C44.6604 4.45407 44.5727 3.75698 44.3973 3.18146C44.2249 2.60594 43.9756 2.16738 43.6494 1.86577C43.3263 1.56416 42.9369 1.41335 42.4814 1.41335C41.7982 1.41335 41.2642 1.75035 40.8795 2.42436C40.4948 3.09529 40.3025 4.04474 40.3025 5.27273C40.3025 6.09138 40.3886 6.78693 40.561 7.35938C40.7333 7.93182 40.9811 8.36731 41.3042 8.66584C41.6305 8.96437 42.0229 9.11364 42.4814 9.11364Z" fill="black"/>
</svg>
